<svg version="1.0" xmlns="http://www.w3.org/2000/svg"
  viewBox="0 0 243.000000 233.000000"
>

<g transform="translate(0.000000,233.000000) scale(0.100000,-0.100000)"
>
<path d="M1871 2066 c-139 -35 -265 -70 -278 -77 -54 -29 -53 -23 -53 -640 l0
-571 -22 7 c-44 14 -229 17 -291 5 -83 -16 -169 -63 -221 -121 -142 -158 -48
-363 199 -435 112 -32 278 -20 383 29 59 27 136 99 161 150 20 42 21 57 21
590 l0 547 23 10 c12 5 105 30 206 55 101 25 192 50 202 56 40 21 49 60 49
218 0 160 -6 192 -42 214 -48 31 -79 27 -337 -37z"/>
<path d="M292 1879 c-91 -26 -95 -178 -7 -215 50 -21 890 -21 939 0 46 19 66
52 66 107 0 57 -26 94 -78 109 -47 13 -874 12 -920 -1z"/>
<path d="M283 1396 c-90 -40 -80 -188 14 -216 26 -8 177 -10 480 -8 430 3 442
4 470 24 56 41 56 147 0 188 -28 21 -39 21 -480 23 -370 2 -458 0 -484 -11z"/>
<path d="M292 919 c-91 -26 -95 -178 -7 -215 48 -20 411 -20 458 0 94 39 87
188 -10 215 -47 13 -395 13 -441 0z"/>
</g>
</svg>