<svg viewBox="0 0 14 18" xmlns="http://www.w3.org/2000/svg">
<path d="M11.2339 12.3446C10.6881 12.3446 10.1797 12.5068 9.75108 12.7857L5.42482 9.69802C5.49427 9.45021 5.53225 9.18878 5.53225 8.91817C5.53225 8.64751 5.49427 8.38609 5.42482 8.13827L9.63422 5.13397C10.0859 5.46193 10.6376 5.65542 11.2338 5.65542C12.7615 5.65542 13.9999 4.3894 13.9999 2.82772C13.9999 1.26605 12.7615 0 11.2339 0C9.70613 0 8.46772 1.26602 8.46772 2.82769C8.46772 3.03394 8.4899 3.23481 8.53091 3.4285L4.21459 6.50909C3.79325 6.24382 3.29729 6.09048 2.76612 6.09048C1.23845 6.09048 0 7.3565 0 8.91817C0 10.4799 1.23841 11.7459 2.76612 11.7459C3.29725 11.7459 3.79325 11.5925 4.21459 11.3272L8.56424 14.4316C8.50169 14.6678 8.46772 14.9159 8.46772 15.1723C8.46772 16.7339 9.70613 18 11.2339 18C12.7615 18 14 16.7339 14 15.1723C14 13.6107 12.7615 12.3446 11.2339 12.3446Z"/>
</svg>