<?xml version="1.0" standalone="no"?>
<!DOCTYPE svg PUBLIC "-//W3C//DTD SVG 20010904//EN"
 "http://www.w3.org/TR/2001/REC-SVG-20010904/DTD/svg10.dtd">
<svg version="1.0" xmlns="http://www.w3.org/2000/svg"
 width="608.000000pt" height="608.000000pt" viewBox="0 0 608.000000 608.000000"
 preserveAspectRatio="xMidYMid meet">
<metadata>
Created by potrace 1.14, written by Peter Selinger 2001-2017
</metadata>
<g transform="translate(0.000000,608.000000) scale(0.100000,-0.100000)"
fill="#000000" stroke="none">
<path d="M2828 5695 c-2 -2 -30 -6 -63 -9 -33 -4 -76 -9 -95 -12 -19 -4 -44
-8 -55 -10 -247 -44 -509 -132 -720 -242 -49 -26 -92 -49 -95 -52 -3 -3 -37
-25 -76 -48 -88 -53 -154 -100 -254 -182 -71 -58 -72 -60 -178 -163 l-90 -89
-99 22 c-54 12 -107 23 -118 24 -11 2 -42 7 -70 11 -27 4 -61 9 -75 11 -14 3
-72 7 -130 11 l-105 5 0 -403 1 -404 -26 -25 c-14 -14 -39 -34 -55 -45 -154
-106 -309 -310 -373 -490 -51 -144 -62 -206 -67 -360 -12 -367 150 -703 442
-917 35 -26 67 -48 72 -50 5 -1 12 -28 15 -58 4 -30 9 -67 12 -82 3 -15 7 -39
9 -55 6 -47 44 -214 62 -273 9 -30 17 -57 18 -60 31 -128 166 -418 266 -571
121 -185 289 -377 430 -490 23 -19 56 -46 73 -60 51 -41 176 -130 176 -124 0
3 15 -5 33 -19 42 -32 221 -126 323 -169 80 -34 260 -98 319 -113 17 -4 35 -8
40 -10 154 -39 218 -51 375 -69 36 -4 79 -9 95 -11 38 -5 369 -5 415 0 19 2
64 6 100 10 36 4 99 13 140 21 41 8 87 17 102 19 80 13 296 76 388 113 8 4 17
7 20 8 76 26 303 141 402 203 400 250 727 648 895 1087 42 109 46 118 48 130
2 6 13 42 25 82 12 39 23 80 25 90 2 10 4 18 5 18 2 0 3 7 14 60 14 63 46 253
48 281 2 31 11 40 72 80 47 32 216 196 216 211 0 6 7 13 15 17 8 3 15 10 15
16 0 6 8 20 19 31 30 32 105 186 135 275 88 265 68 580 -53 824 -40 81 -63
122 -71 130 -3 3 -17 21 -30 40 -65 93 -174 199 -262 255 -25 17 -48 37 -50
45 -2 8 -3 194 -2 413 0 276 -3 397 -10 398 -39 3 -252 -15 -309 -27 -12 -2
-38 -7 -57 -10 -34 -5 -195 -39 -215 -45 -5 -2 -62 48 -125 110 -115 113 -302
263 -395 316 -28 16 -57 34 -65 41 -21 17 -240 126 -320 159 -150 63 -380 128
-530 151 -19 3 -48 8 -65 11 -16 2 -43 7 -60 9 -37 5 -492 13 -497 9z m377
-459 c55 -5 163 -18 175 -21 3 -1 25 -5 50 -10 25 -5 47 -9 50 -10 3 -1 21 -5
40 -9 19 -4 55 -15 80 -23 25 -8 53 -16 63 -18 82 -17 437 -185 437 -207 0 -5
5 -8 11 -8 9 0 127 -76 139 -89 3 -4 35 -30 72 -60 37 -29 69 -59 72 -66 3 -8
-28 -29 -81 -56 -46 -24 -99 -53 -116 -64 l-31 -22 -85 39 c-48 22 -101 46
-119 54 -18 8 -87 33 -153 55 -105 34 -154 48 -234 65 -11 2 -29 6 -40 9 -48
10 -63 13 -108 19 -27 4 -58 9 -70 12 -119 23 -501 22 -627 -1 -14 -3 -47 -7
-75 -11 -44 -5 -86 -13 -160 -30 -11 -3 -29 -7 -41 -9 -114 -24 -367 -116
-480 -175 l-52 -27 -55 33 c-30 18 -81 47 -113 64 -33 18 -62 35 -66 39 -18
16 204 185 352 268 83 47 222 115 264 128 11 4 23 8 26 9 46 16 117 41 125 43
66 19 165 45 185 48 14 2 39 6 55 9 73 11 115 17 180 22 38 3 70 6 71 7 4 4
201 -1 259 -7z m-2045 -815 c72 -21 169 -57 245 -92 28 -12 52 -23 55 -24 30
-10 80 -37 85 -45 4 -6 11 -8 16 -5 5 4 9 1 9 -4 0 -6 5 -11 10 -11 13 0 144
-81 148 -92 2 -4 8 -8 14 -8 10 0 154 -106 163 -121 4 -5 39 13 79 40 115 78
362 192 489 226 9 3 25 7 35 10 32 8 107 27 127 31 11 2 31 6 45 9 106 21 203
29 355 29 195 1 322 -13 470 -52 22 -6 51 -13 65 -16 24 -4 128 -39 160 -53 8
-3 17 -7 20 -8 76 -26 220 -98 323 -161 91 -56 102 -60 116 -46 55 54 276 200
375 247 29 14 55 28 59 31 23 24 350 139 366 130 10 -6 8 -2122 -2 -2166 -3
-14 -8 -43 -11 -65 -3 -22 -8 -58 -11 -80 -8 -52 -52 -226 -66 -262 -6 -15
-12 -35 -14 -43 -7 -33 -61 -160 -103 -240 -113 -216 -244 -379 -428 -535 -39
-33 -81 -67 -94 -75 -12 -8 -35 -25 -50 -38 -15 -12 -31 -22 -34 -22 -3 0 -32
-17 -63 -37 -122 -78 -430 -204 -553 -227 -14 -3 -59 -11 -100 -20 -41 -8 -91
-18 -110 -21 -162 -25 -497 -25 -635 1 -128 24 -173 33 -194 38 -178 42 -415
140 -576 240 -364 225 -619 549 -757 961 -17 49 -32 99 -34 110 -1 11 -7 38
-13 60 -12 50 -20 90 -26 135 -3 19 -7 46 -10 60 -2 14 -7 54 -11 90 -7 67
-14 2119 -7 2133 5 9 -3 10 73 -12z"/>
<path d="M1735 2562 c-3 -3 -43 -5 -90 -4 l-86 0 5 -66 c13 -164 66 -288 164
-386 112 -111 209 -156 387 -181 63 -9 139 -12 502 -19 l292 -6 -20 72 c-11
40 -27 95 -34 122 -18 59 -75 186 -92 204 -7 7 -13 18 -13 23 0 5 -26 35 -58
67 -55 54 -170 122 -207 122 -9 0 -24 4 -34 9 -10 6 -37 12 -62 15 -24 3 -55
8 -69 11 -14 3 -86 7 -160 10 -74 2 -135 5 -135 5 0 1 -39 2 -88 3 -48 1 -87
0 -87 -4 0 -3 -25 -2 -55 1 -31 3 -58 4 -60 2z"/>
<path d="M4087 2564 c-1 -2 -68 -6 -147 -9 -80 -3 -155 -7 -167 -9 -11 -3 -43
-8 -70 -12 -26 -5 -50 -8 -53 -9 -84 -17 -200 -76 -256 -131 -44 -43 -106
-140 -131 -204 -30 -78 -36 -94 -38 -105 -2 -5 -12 -42 -24 -81 -22 -73 -27
-119 -13 -110 5 3 141 8 303 11 383 9 478 14 539 28 96 23 193 60 218 84 7 7
17 13 21 13 14 0 117 105 147 150 57 85 90 180 99 288 3 34 6 68 8 75 1 9 -35
12 -146 13 -81 1 -150 4 -153 6 -3 3 -19 3 -37 -1 -18 -4 -46 -4 -64 0 -18 3
-34 5 -36 3z"/>
<path d="M2454 1638 c-2 -3 22 -28 53 -55 32 -26 60 -51 63 -54 28 -31 328
-201 382 -217 24 -7 46 -15 65 -23 25 -9 36 -7 100 22 24 10 45 19 48 19 14 0
166 79 207 107 26 18 50 33 53 33 15 0 205 157 205 170 0 8 -1171 6 -1176 -2z"/>
<path d="M2569 1166 c-42 -32 -99 -128 -99 -166 0 -34 222 -127 370 -156 19
-3 100 -8 180 -9 205 -4 324 20 507 105 78 36 83 40 79 67 -6 56 -77 161 -110
164 -13 2 -3 3 -125 -22 -53 -11 -126 -22 -163 -24 -37 -2 -71 -5 -75 -7 -5
-2 -53 -3 -108 -3 -143 2 -257 17 -406 53 -24 6 -41 5 -50 -2z"/>
</g>
</svg>
